{
    "asset" : {
        "generator" : "Khronos glTF Blender I/O v1.8.19",
        "version" : "2.0"
    },
    "scene" : 0,
    "scenes" : [
        {
            "name" : "Scene",
            "nodes" : [
                5
            ]
        }
    ],
    "nodes" : [
        {
            "name" : "Bone"
        },
        {
            "name" : "Bone.001",
            "translation" : [
                0,
                0,
                -4.174447059631348
            ]
        },
        {
            "name" : "Bone.002",
            "translation" : [
                1.619985818862915,
                0,
                -2.122465133666992
            ]
        },
        {
            "name" : "Bone.003",
            "translation" : [
                -1.5582722425460815,
                0,
                -2.122465133666992
            ]
        },
        {
            "mesh" : 0,
            "name" : "Cube",
            "skin" : 0
        },
        {
            "children" : [
                4,
                0,
                1,
                2,
                3
            ],
            "name" : "Armature",
            "scale" : [
                3.7032768726348877,
                5.436858654022217,
                3.7032768726348877
            ],
            "translation" : [
                0,
                0,
                7.642421722412109
            ]
        }
    ],
    "animations" : [
        {
            "channels" : [
                {
                    "sampler" : 0,
                    "target" : {
                        "node" : 0,
                        "path" : "translation"
                    }
                },
                {
                    "sampler" : 1,
                    "target" : {
                        "node" : 0,
                        "path" : "rotation"
                    }
                },
                {
                    "sampler" : 2,
                    "target" : {
                        "node" : 0,
                        "path" : "scale"
                    }
                },
                {
                    "sampler" : 3,
                    "target" : {
                        "node" : 1,
                        "path" : "translation"
                    }
                },
                {
                    "sampler" : 4,
                    "target" : {
                        "node" : 1,
                        "path" : "rotation"
                    }
                },
                {
                    "sampler" : 5,
                    "target" : {
                        "node" : 1,
                        "path" : "scale"
                    }
                },
                {
                    "sampler" : 6,
                    "target" : {
                        "node" : 2,
                        "path" : "translation"
                    }
                },
                {
                    "sampler" : 7,
                    "target" : {
                        "node" : 2,
                        "path" : "rotation"
                    }
                },
                {
                    "sampler" : 8,
                    "target" : {
                        "node" : 2,
                        "path" : "scale"
                    }
                },
                {
                    "sampler" : 9,
                    "target" : {
                        "node" : 3,
                        "path" : "translation"
                    }
                },
                {
                    "sampler" : 10,
                    "target" : {
                        "node" : 3,
                        "path" : "rotation"
                    }
                },
                {
                    "sampler" : 11,
                    "target" : {
                        "node" : 3,
                        "path" : "scale"
                    }
                }
            ],
            "name" : "crumble",
            "samplers" : [
                {
                    "input" : 7,
                    "interpolation" : "LINEAR",
                    "output" : 8
                },
                {
                    "input" : 7,
                    "interpolation" : "LINEAR",
                    "output" : 9
                },
                {
                    "input" : 10,
                    "interpolation" : "LINEAR",
                    "output" : 11
                },
                {
                    "input" : 7,
                    "interpolation" : "LINEAR",
                    "output" : 12
                },
                {
                    "input" : 10,
                    "interpolation" : "LINEAR",
                    "output" : 13
                },
                {
                    "input" : 7,
                    "interpolation" : "LINEAR",
                    "output" : 14
                },
                {
                    "input" : 7,
                    "interpolation" : "LINEAR",
                    "output" : 15
                },
                {
                    "input" : 10,
                    "interpolation" : "LINEAR",
                    "output" : 16
                },
                {
                    "input" : 10,
                    "interpolation" : "LINEAR",
                    "output" : 17
                },
                {
                    "input" : 7,
                    "interpolation" : "LINEAR",
                    "output" : 18
                },
                {
                    "input" : 10,
                    "interpolation" : "LINEAR",
                    "output" : 19
                },
                {
                    "input" : 7,
                    "interpolation" : "LINEAR",
                    "output" : 20
                }
            ]
        },
        {
            "channels" : [
                {
                    "sampler" : 0,
                    "target" : {
                        "node" : 0,
                        "path" : "translation"
                    }
                },
                {
                    "sampler" : 1,
                    "target" : {
                        "node" : 0,
                        "path" : "rotation"
                    }
                },
                {
                    "sampler" : 2,
                    "target" : {
                        "node" : 0,
                        "path" : "scale"
                    }
                },
                {
                    "sampler" : 3,
                    "target" : {
                        "node" : 1,
                        "path" : "translation"
                    }
                },
                {
                    "sampler" : 4,
                    "target" : {
                        "node" : 1,
                        "path" : "rotation"
                    }
                },
                {
                    "sampler" : 5,
                    "target" : {
                        "node" : 1,
                        "path" : "scale"
                    }
                },
                {
                    "sampler" : 6,
                    "target" : {
                        "node" : 2,
                        "path" : "translation"
                    }
                },
                {
                    "sampler" : 7,
                    "target" : {
                        "node" : 2,
                        "path" : "rotation"
                    }
                },
                {
                    "sampler" : 8,
                    "target" : {
                        "node" : 2,
                        "path" : "scale"
                    }
                },
                {
                    "sampler" : 9,
                    "target" : {
                        "node" : 3,
                        "path" : "translation"
                    }
                },
                {
                    "sampler" : 10,
                    "target" : {
                        "node" : 3,
                        "path" : "rotation"
                    }
                },
                {
                    "sampler" : 11,
                    "target" : {
                        "node" : 3,
                        "path" : "scale"
                    }
                }
            ],
            "name" : "stands",
            "samplers" : [
                {
                    "input" : 7,
                    "interpolation" : "LINEAR",
                    "output" : 21
                },
                {
                    "input" : 7,
                    "interpolation" : "LINEAR",
                    "output" : 22
                },
                {
                    "input" : 7,
                    "interpolation" : "LINEAR",
                    "output" : 23
                },
                {
                    "input" : 7,
                    "interpolation" : "LINEAR",
                    "output" : 24
                },
                {
                    "input" : 7,
                    "interpolation" : "LINEAR",
                    "output" : 25
                },
                {
                    "input" : 7,
                    "interpolation" : "LINEAR",
                    "output" : 26
                },
                {
                    "input" : 7,
                    "interpolation" : "LINEAR",
                    "output" : 27
                },
                {
                    "input" : 7,
                    "interpolation" : "LINEAR",
                    "output" : 28
                },
                {
                    "input" : 7,
                    "interpolation" : "LINEAR",
                    "output" : 29
                },
                {
                    "input" : 7,
                    "interpolation" : "LINEAR",
                    "output" : 30
                },
                {
                    "input" : 7,
                    "interpolation" : "LINEAR",
                    "output" : 31
                },
                {
                    "input" : 7,
                    "interpolation" : "LINEAR",
                    "output" : 32
                }
            ]
        }
    ],
    "materials" : [
        {
            "doubleSided" : true,
            "name" : "Material.006",
            "pbrMetallicRoughness" : {
                "baseColorTexture" : {
                    "index" : 0
                },
                "metallicFactor" : 0,
                "roughnessFactor" : 0.5
            }
        }
    ],
    "meshes" : [
        {
            "name" : "Cube.001",
            "primitives" : [
                {
                    "attributes" : {
                        "POSITION" : 0,
                        "NORMAL" : 1,
                        "TEXCOORD_0" : 2,
                        "JOINTS_0" : 3,
                        "WEIGHTS_0" : 4
                    },
                    "indices" : 5,
                    "material" : 0
                }
            ]
        }
    ],
    "textures" : [
        {
            "sampler" : 0,
            "source" : 0
        }
    ],
    "images" : [
        {
            "bufferView" : 6,
            "mimeType" : "image/png",
            "name" : "CastleSkin"
        }
    ],
    "skins" : [
        {
            "inverseBindMatrices" : 6,
            "joints" : [
                0,
                1,
                2,
                3
            ],
            "name" : "Armature"
        }
    ],
    "accessors" : [
        {
            "bufferView" : 0,
            "componentType" : 5126,
            "count" : 1389,
            "max" : [
                6.6088433265686035,
                7.328957557678223,
                8.558622360229492
            ],
            "min" : [
                -6.6088433265686035,
                -1.0000001192092896,
                -8.558622360229492
            ],
            "type" : "VEC3"
        },
        {
            "bufferView" : 1,
            "componentType" : 5126,
            "count" : 1389,
            "type" : "VEC3"
        },
        {
            "bufferView" : 2,
            "componentType" : 5126,
            "count" : 1389,
            "type" : "VEC2"
        },
        {
            "bufferView" : 3,
            "componentType" : 5121,
            "count" : 1389,
            "type" : "VEC4"
        },
        {
            "bufferView" : 4,
            "componentType" : 5126,
            "count" : 1389,
            "type" : "VEC4"
        },
        {
            "bufferView" : 5,
            "componentType" : 5123,
            "count" : 5214,
            "type" : "SCALAR"
        },
        {
            "bufferView" : 7,
            "componentType" : 5126,
            "count" : 4,
            "type" : "MAT4"
        },
        {
            "bufferView" : 8,
            "componentType" : 5126,
            "count" : 2,
            "max" : [
                0.5
            ],
            "min" : [
                0.041666666666666664
            ],
            "type" : "SCALAR"
        },
        {
            "bufferView" : 9,
            "componentType" : 5126,
            "count" : 2,
            "type" : "VEC3"
        },
        {
            "bufferView" : 10,
            "componentType" : 5126,
            "count" : 2,
            "type" : "VEC4"
        },
        {
            "bufferView" : 11,
            "componentType" : 5126,
            "count" : 12,
            "max" : [
                0.5
            ],
            "min" : [
                0.041666666666666664
            ],
            "type" : "SCALAR"
        },
        {
            "bufferView" : 12,
            "componentType" : 5126,
            "count" : 12,
            "type" : "VEC3"
        },
        {
            "bufferView" : 13,
            "componentType" : 5126,
            "count" : 2,
            "type" : "VEC3"
        },
        {
            "bufferView" : 14,
            "componentType" : 5126,
            "count" : 12,
            "type" : "VEC4"
        },
        {
            "bufferView" : 15,
            "componentType" : 5126,
            "count" : 2,
            "type" : "VEC3"
        },
        {
            "bufferView" : 16,
            "componentType" : 5126,
            "count" : 2,
            "type" : "VEC3"
        },
        {
            "bufferView" : 17,
            "componentType" : 5126,
            "count" : 12,
            "type" : "VEC4"
        },
        {
            "bufferView" : 18,
            "componentType" : 5126,
            "count" : 12,
            "type" : "VEC3"
        },
        {
            "bufferView" : 19,
            "componentType" : 5126,
            "count" : 2,
            "type" : "VEC3"
        },
        {
            "bufferView" : 20,
            "componentType" : 5126,
            "count" : 12,
            "type" : "VEC4"
        },
        {
            "bufferView" : 21,
            "componentType" : 5126,
            "count" : 2,
            "type" : "VEC3"
        },
        {
            "bufferView" : 22,
            "componentType" : 5126,
            "count" : 2,
            "type" : "VEC3"
        },
        {
            "bufferView" : 23,
            "componentType" : 5126,
            "count" : 2,
            "type" : "VEC4"
        },
        {
            "bufferView" : 24,
            "componentType" : 5126,
            "count" : 2,
            "type" : "VEC3"
        },
        {
            "bufferView" : 25,
            "componentType" : 5126,
            "count" : 2,
            "type" : "VEC3"
        },
        {
            "bufferView" : 26,
            "componentType" : 5126,
            "count" : 2,
            "type" : "VEC4"
        },
        {
            "bufferView" : 27,
            "componentType" : 5126,
            "count" : 2,
            "type" : "VEC3"
        },
        {
            "bufferView" : 28,
            "componentType" : 5126,
            "count" : 2,
            "type" : "VEC3"
        },
        {
            "bufferView" : 29,
            "componentType" : 5126,
            "count" : 2,
            "type" : "VEC4"
        },
        {
            "bufferView" : 30,
            "componentType" : 5126,
            "count" : 2,
            "type" : "VEC3"
        },
        {
            "bufferView" : 31,
            "componentType" : 5126,
            "count" : 2,
            "type" : "VEC3"
        },
        {
            "bufferView" : 32,
            "componentType" : 5126,
            "count" : 2,
            "type" : "VEC4"
        },
        {
            "bufferView" : 33,
            "componentType" : 5126,
            "count" : 2,
            "type" : "VEC3"
        }
    ],
    "bufferViews" : [
        {
            "buffer" : 0,
            "byteLength" : 16668,
            "byteOffset" : 0
        },
        {
            "buffer" : 0,
            "byteLength" : 16668,
            "byteOffset" : 16668
        },
        {
            "buffer" : 0,
            "byteLength" : 11112,
            "byteOffset" : 33336
        },
        {
            "buffer" : 0,
            "byteLength" : 5556,
            "byteOffset" : 44448
        },
        {
            "buffer" : 0,
            "byteLength" : 22224,
            "byteOffset" : 50004
        },
        {
            "buffer" : 0,
            "byteLength" : 10428,
            "byteOffset" : 72228
        },
        {
            "buffer" : 0,
            "byteLength" : 555207,
            "byteOffset" : 82656
        },
        {
            "buffer" : 0,
            "byteLength" : 256,
            "byteOffset" : 637864
        },
        {
            "buffer" : 0,
            "byteLength" : 8,
            "byteOffset" : 638120
        },
        {
            "buffer" : 0,
            "byteLength" : 24,
            "byteOffset" : 638128
        },
        {
            "buffer" : 0,
            "byteLength" : 32,
            "byteOffset" : 638152
        },
        {
            "buffer" : 0,
            "byteLength" : 48,
            "byteOffset" : 638184
        },
        {
            "buffer" : 0,
            "byteLength" : 144,
            "byteOffset" : 638232
        },
        {
            "buffer" : 0,
            "byteLength" : 24,
            "byteOffset" : 638376
        },
        {
            "buffer" : 0,
            "byteLength" : 192,
            "byteOffset" : 638400
        },
        {
            "buffer" : 0,
            "byteLength" : 24,
            "byteOffset" : 638592
        },
        {
            "buffer" : 0,
            "byteLength" : 24,
            "byteOffset" : 638616
        },
        {
            "buffer" : 0,
            "byteLength" : 192,
            "byteOffset" : 638640
        },
        {
            "buffer" : 0,
            "byteLength" : 144,
            "byteOffset" : 638832
        },
        {
            "buffer" : 0,
            "byteLength" : 24,
            "byteOffset" : 638976
        },
        {
            "buffer" : 0,
            "byteLength" : 192,
            "byteOffset" : 639000
        },
        {
            "buffer" : 0,
            "byteLength" : 24,
            "byteOffset" : 639192
        },
        {
            "buffer" : 0,
            "byteLength" : 24,
            "byteOffset" : 639216
        },
        {
            "buffer" : 0,
            "byteLength" : 32,
            "byteOffset" : 639240
        },
        {
            "buffer" : 0,
            "byteLength" : 24,
            "byteOffset" : 639272
        },
        {
            "buffer" : 0,
            "byteLength" : 24,
            "byteOffset" : 639296
        },
        {
            "buffer" : 0,
            "byteLength" : 32,
            "byteOffset" : 639320
        },
        {
            "buffer" : 0,
            "byteLength" : 24,
            "byteOffset" : 639352
        },
        {
            "buffer" : 0,
            "byteLength" : 24,
            "byteOffset" : 639376
        },
        {
            "buffer" : 0,
            "byteLength" : 32,
            "byteOffset" : 639400
        },
        {
            "buffer" : 0,
            "byteLength" : 24,
            "byteOffset" : 639432
        },
        {
            "buffer" : 0,
            "byteLength" : 24,
            "byteOffset" : 639456
        },
        {
            "buffer" : 0,
            "byteLength" : 32,
            "byteOffset" : 639480
        },
        {
            "buffer" : 0,
            "byteLength" : 24,
            "byteOffset" : 639512
        }
    ],
    "samplers" : [
        {
            "magFilter" : 9729,
            "minFilter" : 9987
        }
    ],
    "buffers" : [
        {
            "byteLength" : 639536,
            "uri" : "data:application/octet-stream;base64,"
        }
    ]
}
