{
	"asset":{
		"generator":"Khronos glTF Blender I/O v3.5.30",
		"version":"2.0"
	},
	"extensionsUsed":[
		"KHR_materials_specular",
		"KHR_materials_ior"
	],
	"scene":0,
	"scenes":[
		{
			"name":"Scene",
			"nodes":[
				0,
				1
			]
		}
	],
	"nodes":[
		{
			"mesh":0,
			"name":"field",
			"scale":[
				75,
				1,
				125
			]
		},
		{
			"mesh":1,
			"name":"track",
			"scale":[
				75,
				1,
				125
			]
		}
	],
	"materials":[
		{
			"doubleSided":true,
			"extensions":{
				"KHR_materials_specular":{
					"specularColorFactor":[
						0.25775627165736464,
						0.25775627165736464,
						0.25775627165736464
					]
				},
				"KHR_materials_ior":{
					"ior":1.4500000476837158
				}
			},
			"name":"grass",
			"pbrMetallicRoughness":{
				"baseColorFactor":[
					0.006029412616044283,
					0.1511785238981247,
					0.007607781328260899,
					1
				],
				"metallicFactor":0,
				"roughnessFactor":0.6739130616188049
			}
		},
		{
			"doubleSided":true,
			"extensions":{
				"KHR_materials_specular":{
					"specularColorFactor":[
						0.2591622373796007,
						0.2591622373796007,
						0.2591622373796007
					]
				},
				"KHR_materials_ior":{
					"ior":1.4500000476837158
				}
			},
			"name":"track",
			"pbrMetallicRoughness":{
				"baseColorFactor":[
					0.027209652587771416,
					0.027209652587771416,
					0.027209652587771416,
					1
				],
				"metallicFactor":0,
				"roughnessFactor":0.43478262424468994
			}
		}
	],
	"meshes":[
		{
			"name":"Cube.001",
			"primitives":[
				{
					"attributes":{
						"POSITION":0,
						"TEXCOORD_0":1,
						"NORMAL":2
					},
					"indices":3,
					"material":0
				}
			]
		},
		{
			"name":"Cube.002",
			"primitives":[
				{
					"attributes":{
						"POSITION":4,
						"TEXCOORD_0":5,
						"NORMAL":6
					},
					"indices":7,
					"material":1
				}
			]
		}
	],
	"accessors":[
		{
			"bufferView":0,
			"componentType":5126,
			"count":424,
			"max":[
				0.5,
				1.5487853288650513,
				0.5
			],
			"min":[
				-0.5,
				-0.5,
				-0.5
			],
			"type":"VEC3"
		},
		{
			"bufferView":1,
			"componentType":5126,
			"count":424,
			"type":"VEC2"
		},
		{
			"bufferView":2,
			"componentType":5126,
			"count":424,
			"type":"VEC3"
		},
		{
			"bufferView":3,
			"componentType":5123,
			"count":804,
			"type":"SCALAR"
		},
		{
			"bufferView":4,
			"componentType":5126,
			"count":384,
			"max":[
				0.44515126943588257,
				1.5981559753417969,
				0.4699733555316925
			],
			"min":[
				-0.44515126943588257,
				0.7981557846069336,
				-0.4699733555316925
			],
			"type":"VEC3"
		},
		{
			"bufferView":5,
			"componentType":5126,
			"count":384,
			"type":"VEC2"
		},
		{
			"bufferView":6,
			"componentType":5126,
			"count":384,
			"type":"VEC3"
		},
		{
			"bufferView":7,
			"componentType":5123,
			"count":768,
			"type":"SCALAR"
		}
	],
	"bufferViews":[
		{
			"buffer":0,
			"byteLength":5088,
			"byteOffset":0,
			"target":34962
		},
		{
			"buffer":0,
			"byteLength":3392,
			"byteOffset":5088,
			"target":34962
		},
		{
			"buffer":0,
			"byteLength":5088,
			"byteOffset":8480,
			"target":34962
		},
		{
			"buffer":0,
			"byteLength":1608,
			"byteOffset":13568,
			"target":34963
		},
		{
			"buffer":0,
			"byteLength":4608,
			"byteOffset":15176,
			"target":34962
		},
		{
			"buffer":0,
			"byteLength":3072,
			"byteOffset":19784,
			"target":34962
		},
		{
			"buffer":0,
			"byteLength":4608,
			"byteOffset":22856,
			"target":34962
		},
		{
			"buffer":0,
			"byteLength":1536,
			"byteOffset":27464,
			"target":34963
		}
	],
	"buffers":[
		{
			"byteLength":29000,
			"uri":"data:application/octet-stream;base64,"
		}
	]
}
