{
	"asset":{
		"generator":"Khronos glTF Blender I/O v3.5.30",
		"version":"2.0"
	},
	"scene":0,
	"scenes":[
		{
			"name":"Scene",
			"nodes":[
				0
			]
		}
	],
	"nodes":[
		{
			"mesh":0,
			"name":"floating_flag",
			"scale":[
				0.15000000596046448,
				0.15000000596046448,
				0.15000000596046448
			]
		}
	],
	"materials":[
		{
			"doubleSided":true,
			"name":"flag",
			"pbrMetallicRoughness":{
				"baseColorFactor":[
					0.6038157939910889,
					0.12923464179039001,
					0.008422639220952988,
					1
				],
				"metallicFactor":0.47826087474823,
				"roughnessFactor":0.3115941882133484
			}
		}
	],
	"meshes":[
		{
			"name":"Sphere",
			"primitives":[
				{
					"attributes":{
						"POSITION":0,
						"TEXCOORD_0":1,
						"NORMAL":2
					},
					"indices":3,
					"material":0
				}
			]
		}
	],
	"accessors":[
		{
			"bufferView":0,
			"componentType":5126,
			"count":2264,
			"max":[
				0.9999997019767761,
				3.7828211784362793,
				0.9999993443489075
			],
			"min":[
				-1.9186173677444458,
				-1,
				-1
			],
			"type":"VEC3"
		},
		{
			"bufferView":1,
			"componentType":5126,
			"count":2264,
			"type":"VEC2"
		},
		{
			"bufferView":2,
			"componentType":5126,
			"count":2264,
			"type":"VEC3"
		},
		{
			"bufferView":3,
			"componentType":5123,
			"count":3300,
			"type":"SCALAR"
		}
	],
	"bufferViews":[
		{
			"buffer":0,
			"byteLength":27168,
			"byteOffset":0,
			"target":34962
		},
		{
			"buffer":0,
			"byteLength":18112,
			"byteOffset":27168,
			"target":34962
		},
		{
			"buffer":0,
			"byteLength":27168,
			"byteOffset":45280,
			"target":34962
		},
		{
			"buffer":0,
			"byteLength":6600,
			"byteOffset":72448,
			"target":34963
		}
	],
	"buffers":[
		{
			"byteLength":79048,
			"uri":"data:application/octet-stream;base64,"
		}
	]
}
